<svg xmlns="http://www.w3.org/2000/svg" fill="none" viewBox="0 0 78 87" height="87" width="78">
<path fill="#C8AA6E" d="M43.8825 3.65238C63.1113 6.12857 78 22.9873 78 43.4159C78 50.8238 76.0309 57.7571 72.6152 63.7206H62.3076C64.3168 61.2857 65.9444 58.5825 67.17 55.6317C68.7573 51.773 69.5611 47.646 69.5611 43.4159C69.5611 39.1651 68.7573 35.0587 67.17 31.2C65.6229 27.4651 63.4328 24.1016 60.6198 21.2127C57.8068 18.3238 54.5317 16.054 50.8949 14.4857C48.6445 13.4952 46.2937 12.8143 43.8825 12.4222V3.65238ZM14.1252 74.2651V61.6571C12.8192 59.7794 11.7141 57.7571 10.83 55.6317C9.24266 51.773 8.43895 47.646 8.43895 43.4159C8.43895 39.1651 9.24266 35.0587 10.83 31.2C11.7141 29.054 12.8192 27.0317 14.1252 25.1746V12.546C5.48532 19.8921 0 30.9937 0 43.4159C0 55.8381 5.48532 66.9191 14.1252 74.2651ZM38.0556 0H15.6924L19.9722 8.97619V77.7937L15.7527 86.6667H66.4266L71.0479 69.7048H38.0556V0Z"></path>
</svg>
